<svg width="80" height="1024" viewBox="0 0 80 1024" fill="none" xmlns="http://www.w3.org/2000/svg">
<rect width="80" height="1024" fill="#0A0A0A"/>
<path d="M59.9676 59.9014L46.3365 49.5182L33.291 59.5819V52.5001L42.2365 45.8442L33.291 39.0819V32.3195L46.3897 42.4364L59.9676 32.0001V39.0819L50.543 46.1105L59.9676 53.139V59.9014Z" fill="white"/>
<path d="M28.0727 78.0387C28.0727 79.2456 27.6468 80.2751 26.7948 81.127C25.9429 81.9435 24.9312 82.3517 23.7597 82.3517C22.5883 82.3517 21.5944 81.9435 20.7779 81.127C19.926 80.2751 19.5 79.2456 19.5 78.0387C19.5 76.8673 19.926 75.8734 20.7779 75.0569C21.5944 74.205 22.5883 73.779 23.7597 73.779C24.9312 73.779 25.9429 74.205 26.7948 75.0569C27.6468 75.8734 28.0727 76.8673 28.0727 78.0387ZM60.5 71.2231C60.5 74.4534 59.7368 76.9028 58.2104 78.5712C56.684 80.2396 54.4299 81.0738 51.4481 81.0738H38.0831V90.6582H33.2909V75.0569H50.8091C52.4065 75.0569 53.5602 74.6842 54.2701 73.9387C54.9801 73.1578 55.3351 71.9863 55.3351 70.4244C55.3351 69.537 55.2463 68.6673 55.0688 67.8153C54.8913 66.9634 54.6074 66.0227 54.2169 64.9933H59.2753C59.5948 65.8097 59.8788 66.7859 60.1273 67.9218C60.3758 69.0578 60.5 70.1582 60.5 71.2231Z" fill="white"/>
<path d="M28.0727 78.0376C28.0727 79.2445 27.6468 80.274 26.7948 81.1259C25.9429 81.9424 24.9312 82.3506 23.7597 82.3506C22.5883 82.3506 21.5944 81.9424 20.7779 81.1259C19.926 80.274 19.5 79.2445 19.5 78.0376C19.5 76.8662 19.926 75.8722 20.7779 75.0558C21.5944 74.2038 22.5883 73.7779 23.7597 73.7779C24.9312 73.7779 25.9429 74.2038 26.7948 75.0558C27.6468 75.8722 28.0727 76.8662 28.0727 78.0376Z" fill="#02AB4E"/>
<path d="M59.9676 121.467H33.291V115.45H37.2845C34.3382 113.391 32.865 110.658 32.865 107.25C32.865 105.404 33.2732 103.789 34.0897 102.404C34.8706 101.02 35.9888 99.9374 37.4442 99.1564C38.8641 98.34 40.5148 97.9317 42.3962 97.9317H59.9676V104.002H44.1001C42.1477 104.002 40.6035 104.534 39.4676 105.599C38.2962 106.664 37.7104 108.084 37.7104 109.859C37.7104 110.995 37.9589 112.042 38.4559 113.001C38.9529 113.959 39.6806 114.775 40.639 115.45H59.9676V121.467Z" fill="white"/>
<path d="M53.3334 494.733H26.6667M53.3334 486.733H26.6667M53.3334 478.733H26.6667" stroke="white" stroke-width="2" stroke-linecap="round"/>
<g clip-path="url(#clip0_12_191)">
<mask id="mask0_12_191" style="mask-type:luminance" maskUnits="userSpaceOnUse" x="22" y="852" width="36" height="36">
<path d="M58 870C58 860.059 49.9411 852 40 852C30.0589 852 22 860.059 22 870C22 879.941 30.0589 888 40 888C49.9411 888 58 879.941 58 870Z" fill="white"/>
</mask>
<g mask="url(#mask0_12_191)">
<path d="M58 870C58 860.059 49.9411 852 40 852C30.0589 852 22 860.059 22 870C22 879.941 30.0589 888 40 888C49.9411 888 58 879.941 58 870Z" fill="#0A0A0A"/>
<path fill-rule="evenodd" clip-rule="evenodd" d="M40 852C30.0589 852 22 860.059 22 870C22 879.941 30.0589 888 40 888C49.941 888 58 879.941 58 870C58 860.059 49.941 852 40 852ZM49.8453 862.137C50.9296 862.433 51.7835 863.304 52.0733 864.411C52.6 866.416 52.6 870.6 52.6 870.6C52.6 870.6 52.6 874.784 52.0733 876.789C51.7835 877.896 50.9296 878.767 49.8453 879.063C47.8802 879.6 40 879.6 40 879.6C40 879.6 32.1197 879.6 30.1545 879.063C29.0702 878.767 28.2163 877.896 27.9265 876.789C27.4 874.784 27.4 870.6 27.4 870.6C27.4 870.6 27.4 866.416 27.9265 864.411C28.2163 863.304 29.0702 862.433 30.1545 862.137C32.1197 861.6 40 861.6 40 861.6C40 861.6 47.8802 861.6 49.8453 862.137Z" fill="#0A0A0A"/>
<path fill-rule="evenodd" clip-rule="evenodd" d="M38.2 873.6V867.6L43 870.6L38.2 873.6Z" fill="#0A0A0A"/>
<path fill-rule="evenodd" clip-rule="evenodd" d="M31.1525 859.2C30.0741 859.2 29.2 860.074 29.2 861.153V878.848C29.2 879.926 30.0741 880.8 31.1525 880.8H48.823C49.9014 880.8 50.7755 879.926 50.7755 878.848V861.153C50.7755 860.074 49.9014 859.2 48.823 859.2H31.1525ZM36.7416 860.591C33.3718 860.591 30.64 863.323 30.64 866.693V873.307C30.64 876.677 33.3718 879.409 36.7416 879.409H43.2338C46.6038 879.409 49.3355 876.677 49.3355 873.307V866.693C49.3355 863.323 46.6038 860.591 43.2338 860.591H36.7416Z" fill="#F2F2F2"/>
</g>
</g>
<rect x="22" y="904" width="36" height="36" rx="18" fill="#0A0A0A"/>
<path d="M42.6796 908.055L45.5363 908.073C45.5901 908.115 45.6336 908.143 45.6798 908.163C46.1975 908.397 46.7589 908.565 47.2255 908.876C48.5782 909.775 49.8992 910.722 51.2194 911.669C51.833 912.108 52.4378 912.566 53.0035 913.063C53.424 913.432 53.6127 913.956 53.6138 914.515L53.6127 932.096C53.6121 932.341 53.5701 932.593 53.5018 932.829C53.1916 933.904 52.5037 934.64 51.4211 934.927C50.8501 935.078 50.247 935.125 49.6549 935.174C48.7311 935.251 47.804 935.288 46.8785 935.344L45.1276 935.453L42.3241 935.618L40.6006 935.726L37.7698 935.89L36.3068 935.95C36.2597 935.952 36.2162 936.018 36.1718 936.055C35.0584 936.055 33.9458 936.055 32.823 936.037C32.7691 935.994 32.7282 935.96 32.6803 935.946C32.0018 935.75 31.4328 935.375 30.9953 934.83C30.3894 934.077 29.8136 933.302 29.2309 932.531C28.5147 931.584 27.7799 930.651 27.1031 929.677C26.7053 929.108 26.4922 928.43 26.4928 927.735C26.4909 922.543 26.4915 917.35 26.4947 912.158C26.4947 912.008 26.521 911.857 26.5468 911.708C26.8185 910.11 28.0019 909.257 29.4094 909.099C30.14 909.017 30.8756 908.98 31.6098 908.931L33.5501 908.819L34.3842 908.765L36.8998 908.548L38.2943 908.438L40.6041 908.274L42.5444 908.16C42.5917 908.156 42.6352 908.091 42.6796 908.055ZM31.6754 932.978C31.7918 933.129 31.9215 933.272 32.0232 933.433C32.5163 934.205 33.223 934.485 34.121 934.425L40.2042 934.063L47.0502 933.649L50.4588 933.43C51.469 933.349 51.9568 932.803 51.9765 931.789V931.57L51.9841 914.975C51.985 914.475 51.8124 914.126 51.4125 913.847L46.5948 910.452C45.8198 909.888 44.997 909.624 44.0442 909.7L38.6489 910.099L33.0076 910.515L29.4667 910.791C28.7514 910.856 28.308 911.294 28.1798 911.996C28.1486 912.175 28.1334 912.356 28.1345 912.538L28.1198 927.029C28.1148 927.978 28.4053 928.768 28.9736 929.494L31.6754 932.978Z" fill="white"/>
<path d="M31.6628 932.964L28.9737 929.494C28.4054 928.768 28.1149 927.978 28.1199 927.029L28.1346 912.539C28.1346 912.357 28.1482 912.174 28.1799 911.996C28.3081 911.295 28.7515 910.857 29.4668 910.791L33.0077 910.515L38.6493 910.099L44.0443 909.7C44.9972 909.625 45.8199 909.888 46.5949 910.452C48.1835 911.608 49.8018 912.723 51.4127 913.847C51.8125 914.126 51.9851 914.476 51.9843 914.976L51.9766 931.572V931.79C51.9569 932.803 51.4691 933.349 50.4589 933.43C49.3242 933.522 48.187 933.581 47.0503 933.65L40.2043 934.063L34.1211 934.426C33.2232 934.485 32.5164 934.205 32.0233 933.434C31.9216 933.273 31.7919 933.129 31.6628 932.964ZM33.0641 922.903V930.228L33.0659 931.595C33.0777 932.207 33.3778 932.512 33.9903 932.547C34.1441 932.556 34.2996 932.551 34.4543 932.541L39.5822 932.239L49.3746 931.679C49.9849 931.645 50.2668 931.378 50.3239 930.773C50.3351 930.664 50.3316 930.554 50.3316 930.445L50.3325 916.34C50.3325 916.258 50.3351 916.176 50.3301 916.094C50.2933 915.533 50.0522 915.304 49.4944 915.334L44.4477 915.624C42.0838 915.762 39.72 915.9 37.3562 916.039L33.8109 916.252C33.359 916.281 33.1547 916.476 33.0864 916.918C33.0703 917.035 33.0631 917.153 33.065 917.272L33.0641 922.903ZM45.5705 911.369C45.1424 911.136 44.6776 911.059 44.1989 911.086C43.4633 911.126 42.7276 911.187 41.9917 911.24L31.5029 912.002C31.1859 912.025 30.8672 912.048 30.5544 912.105C30.4494 912.123 30.3168 912.229 30.2845 912.325C30.2604 912.392 30.3665 912.529 30.4442 912.603C30.5879 912.74 30.7535 912.856 30.9101 912.98C31.2817 913.273 31.6772 913.54 32.0183 913.864C32.6651 914.478 33.4178 914.62 34.2802 914.558L41.0691 914.132L48.3775 913.694C48.4442 913.691 48.5109 913.67 48.6577 913.643C48.5236 913.503 48.4457 913.397 48.3442 913.321C47.9862 913.057 47.6247 912.797 47.2599 912.542C46.6994 912.147 46.1363 911.756 45.5705 911.369Z" fill="#0A0A0A"/>
<path d="M33.0641 922.875L33.065 917.271C33.065 917.153 33.0685 917.033 33.0864 916.917C33.1547 916.475 33.359 916.281 33.8109 916.251L37.3562 916.039L44.4476 915.623L49.4942 915.333C50.0522 915.303 50.2933 915.533 50.3298 916.093C50.3351 916.175 50.3325 916.257 50.3325 916.339L50.3316 930.444L50.3239 930.772C50.2668 931.377 49.9849 931.644 49.3745 931.678L39.5822 932.238L34.4543 932.54L33.9905 932.547C33.3778 932.512 33.0777 932.206 33.0659 931.595L33.0641 930.227V922.875ZM43.0754 922.889L40.2605 918.6C40.1623 918.451 40.0659 918.401 39.8847 918.421L38.6849 918.502L36.4777 918.664C35.9352 918.713 35.6071 919.223 35.7574 919.752L36.9264 919.852V929.323L36.1301 929.547C35.777 929.651 35.6259 929.949 35.7447 930.329L38.437 930.174L39.4975 930.087C39.9547 930.012 40.2008 929.732 40.2623 929.275L38.7901 928.939V921.816L38.8995 921.969L42.2831 927.252C42.7805 928.024 43.2913 928.787 43.8152 929.54C44.1886 930.076 44.739 930.24 45.3576 930.107C45.7448 930.024 46.1165 929.867 46.4958 929.745C46.6933 929.68 46.7607 929.563 46.7598 929.341L46.7533 919.607C46.7533 919.038 46.7533 919.038 47.3161 918.924C47.8853 918.81 48.0279 918.582 47.898 917.974L44.4964 918.181C44.1263 918.207 43.8461 918.517 43.7899 918.876C43.7623 919.05 43.7982 919.145 44.0058 919.158L45.0356 919.271V925.873C44.3833 924.878 43.7299 923.883 43.0754 922.89V922.889ZM45.5891 911.377C46.1475 911.763 46.7043 912.151 47.2595 912.541C47.6243 912.796 47.9859 913.056 48.344 913.32C48.4455 913.396 48.5234 913.502 48.6575 913.642L48.3773 913.693L41.0688 914.131L34.2799 914.557C33.4176 914.619 32.6649 914.477 32.018 913.863C31.677 913.539 31.2815 913.272 30.9096 912.979C30.7532 912.855 30.5876 912.739 30.4439 912.602C30.3663 912.527 30.2602 912.392 30.2842 912.324C30.3166 912.228 30.45 912.123 30.5542 912.104C30.867 912.047 31.1857 912.024 31.5027 912.001L41.9917 911.239L44.1989 911.085C44.6773 911.059 45.1422 911.135 45.5891 911.377Z" fill="white"/>
<path d="M43.0871 922.906L45.0355 925.873V919.272L44.0059 919.158C43.798 919.146 43.7622 919.05 43.7895 918.877C43.846 918.517 44.1264 918.208 44.4961 918.181L47.8979 917.975C48.0278 918.583 47.8852 918.81 47.316 918.925C46.7529 919.038 46.7529 919.038 46.7529 919.607L46.7597 929.342C46.7606 929.563 46.6932 929.681 46.4957 929.745L45.3575 930.107C44.7389 930.24 44.1885 930.077 43.8153 929.541C43.2916 928.787 42.7808 928.024 42.2832 927.253L38.8991 921.969C38.8753 921.932 38.848 921.897 38.7898 921.816V928.939L40.2622 929.275C40.2007 929.732 39.9546 930.012 39.4974 930.088C39.1487 930.145 38.7909 930.154 38.4369 930.175L35.7445 930.33C35.6258 929.949 35.7769 929.652 36.13 929.548L36.9262 929.323V919.853L35.7572 919.753C35.607 919.224 35.9351 918.714 36.4776 918.664C37.2117 918.596 37.9491 918.554 38.6848 918.503C39.0846 918.475 39.4863 918.465 39.8846 918.422C40.0657 918.402 40.1624 918.451 40.2604 918.601L43.0871 922.906Z" fill="#0A0A0A"/>
<g clip-path="url(#clip1_12_191)">
<path d="M40 989.3C48.947 989.3 56.1999 982.45 56.1999 974C56.1999 965.55 48.947 958.7 40 958.7C31.053 958.7 23.8 965.55 23.8 974C23.8 982.45 31.053 989.3 40 989.3Z" fill="#F2F2F2"/>
<path fill-rule="evenodd" clip-rule="evenodd" d="M40 992C49.9414 992 58 983.941 58 974C58 964.059 49.9414 956 40 956C30.0586 956 22 964.059 22 974C22 983.941 30.0586 992 40 992ZM36.7006 982.249C37.138 982.249 37.3378 982.055 37.579 981.819L37.6006 981.799L39.7624 979.699L44.2606 983.022C45.0868 983.477 45.6844 983.241 45.8914 982.253L48.8434 968.337C49.1458 967.126 48.3826 966.577 47.5906 966.935L30.2512 973.622C29.0686 974.095 29.074 974.756 30.0352 975.051L34.4848 976.439L44.7862 969.941C45.2722 969.646 45.7186 969.804 45.3532 970.13L37.0048 977.661L37.0066 977.663L36.7006 982.249Z" fill="#0A0A0A"/>
</g>
<defs>
<clipPath id="clip0_12_191">
<rect width="36" height="36" fill="white" transform="translate(22 852)"/>
</clipPath>
<clipPath id="clip1_12_191">
<rect width="36" height="36" fill="white" transform="translate(22 956)"/>
</clipPath>
</defs>
</svg>
