<svg width="80" height="769" viewBox="0 0 80 769" fill="none" xmlns="http://www.w3.org/2000/svg">
<rect width="80" height="769" fill="#0A0A0A"/>
<path d="M54.1651 51.793L44.4951 44.4272L35.2407 51.5663V46.5425L41.5866 41.8209L35.2407 37.0237V32.2265L44.5329 39.4034L54.1651 31.9999V37.0237L47.4792 42.0097L54.1651 46.9958V51.793Z" fill="white"/>
<path d="M31.539 64.6601C31.539 65.5163 31.2368 66.2465 30.6324 66.8509C30.0281 67.4301 29.3104 67.7197 28.4794 67.7197C27.6484 67.7197 26.9433 67.4301 26.3641 66.8509C25.7597 66.2465 25.4575 65.5163 25.4575 64.6601C25.4575 63.8291 25.7597 63.124 26.3641 62.5448C26.9433 61.9404 27.6484 61.6382 28.4794 61.6382C29.3104 61.6382 30.0281 61.9404 30.6324 62.5448C31.2368 63.124 31.539 63.8291 31.539 64.6601ZM54.5428 59.8251C54.5428 62.1167 54.0014 63.8542 52.9186 65.0378C51.8357 66.2214 50.2367 66.8131 48.1214 66.8131H38.6403V73.6123H35.2408V62.5448H47.6681C48.8013 62.5448 49.6197 62.2804 50.1234 61.7515C50.627 61.1975 50.8788 60.3665 50.8788 59.2585C50.8788 58.629 50.8159 58.012 50.69 57.4076C50.564 56.8033 50.3626 56.1359 50.0856 55.4057H53.674C53.9007 55.9848 54.1021 56.6774 54.2784 57.4832C54.4547 58.289 54.5428 59.0697 54.5428 59.8251Z" fill="white"/>
<path d="M31.539 64.6591C31.539 65.5153 31.2368 66.2456 30.6324 66.85C30.0281 67.4292 29.3104 67.7188 28.4794 67.7188C27.6484 67.7188 26.9433 67.4292 26.3641 66.85C25.7597 66.2456 25.4575 65.5153 25.4575 64.6591C25.4575 63.8281 25.7597 63.123 26.3641 62.5438C26.9433 61.9395 27.6484 61.6373 28.4794 61.6373C29.3104 61.6373 30.0281 61.9395 30.6324 62.5438C31.2368 63.123 31.539 63.8281 31.539 64.6591Z" fill="#02AB4E"/>
<path d="M54.165 95.4678H35.2407V91.1994H38.0736C35.9835 89.7389 34.9385 87.7998 34.9385 85.3824C34.9385 84.0729 35.2281 82.9271 35.8073 81.945C36.3613 80.9629 37.1545 80.1948 38.187 79.6408C39.1942 79.0617 40.3652 78.7721 41.6999 78.7721H54.165V83.0782H42.9086C41.5236 83.0782 40.4282 83.4559 39.6223 84.2114C38.7913 84.9668 38.3758 85.9741 38.3758 87.2332C38.3758 88.0391 38.5521 88.7819 38.9047 89.4618C39.2572 90.1418 39.7734 90.721 40.4533 91.1994H54.165V95.4678Z" fill="white"/>
<path d="M53.3332 354.233H26.6665M53.3332 346.233H26.6665M53.3332 338.233H26.6665" stroke="white" stroke-width="2" stroke-linecap="round"/>
<g clip-path="url(#clip0_42_135)">
<mask id="mask0_42_135" style="mask-type:luminance" maskUnits="userSpaceOnUse" x="22" y="597" width="36" height="36">
<path d="M58 615C58 605.059 49.9411 597 40 597C30.0589 597 22 605.059 22 615C22 624.941 30.0589 633 40 633C49.9411 633 58 624.941 58 615Z" fill="white"/>
</mask>
<g mask="url(#mask0_42_135)">
<path d="M58 615C58 605.059 49.9411 597 40 597C30.0589 597 22 605.059 22 615C22 624.941 30.0589 633 40 633C49.9411 633 58 624.941 58 615Z" fill="#0A0A0A"/>
<path fill-rule="evenodd" clip-rule="evenodd" d="M40 597C30.0589 597 22 605.059 22 615C22 624.941 30.0589 633 40 633C49.941 633 58 624.941 58 615C58 605.059 49.941 597 40 597ZM49.8453 607.137C50.9296 607.433 51.7835 608.304 52.0733 609.411C52.6 611.416 52.6 615.6 52.6 615.6C52.6 615.6 52.6 619.784 52.0733 621.789C51.7835 622.896 50.9296 623.767 49.8453 624.063C47.8802 624.6 40 624.6 40 624.6C40 624.6 32.1197 624.6 30.1545 624.063C29.0702 623.767 28.2163 622.896 27.9265 621.789C27.4 619.784 27.4 615.6 27.4 615.6C27.4 615.6 27.4 611.416 27.9265 609.411C28.2163 608.304 29.0702 607.433 30.1545 607.137C32.1197 606.6 40 606.6 40 606.6C40 606.6 47.8802 606.6 49.8453 607.137Z" fill="#0A0A0A"/>
<path fill-rule="evenodd" clip-rule="evenodd" d="M38.2002 618.6V612.6L43.0003 615.6L38.2002 618.6Z" fill="#0A0A0A"/>
<path fill-rule="evenodd" clip-rule="evenodd" d="M31.1527 604.2C30.0744 604.2 29.2002 605.074 29.2002 606.153V623.848C29.2002 624.926 30.0744 625.8 31.1527 625.8H48.8233C49.9016 625.8 50.7757 624.926 50.7757 623.848V606.153C50.7757 605.074 49.9016 604.2 48.8233 604.2H31.1527ZM36.7419 605.591C33.372 605.591 30.6402 608.323 30.6402 611.693V618.307C30.6402 621.677 33.372 624.409 36.7419 624.409H43.2341C46.604 624.409 49.3357 621.677 49.3357 618.307V611.693C49.3357 608.323 46.604 605.591 43.2341 605.591H36.7419Z" fill="#F2F2F2"/>
</g>
</g>
<rect x="22" y="649" width="36" height="36" rx="18" fill="#0A0A0A"/>
<path d="M42.6796 653.055L45.5363 653.073C45.5901 653.115 45.6336 653.143 45.6798 653.163C46.1975 653.397 46.7589 653.565 47.2255 653.876C48.5782 654.775 49.8992 655.722 51.2194 656.669C51.833 657.108 52.4378 657.566 53.0035 658.063C53.424 658.432 53.6127 658.956 53.6138 659.515L53.6127 677.096C53.6121 677.341 53.5701 677.593 53.5018 677.829C53.1916 678.904 52.5037 679.64 51.4211 679.927C50.8501 680.078 50.247 680.125 49.6549 680.174C48.7311 680.251 47.804 680.288 46.8785 680.344L45.1276 680.453L42.3241 680.618L40.6006 680.726L37.7698 680.89L36.3068 680.95C36.2597 680.952 36.2162 681.018 36.1718 681.055C35.0584 681.055 33.9458 681.055 32.823 681.037C32.7691 680.994 32.7282 680.96 32.6803 680.946C32.0018 680.75 31.4328 680.375 30.9953 679.83C30.3894 679.077 29.8136 678.302 29.2309 677.531C28.5147 676.584 27.7799 675.651 27.1031 674.677C26.7053 674.108 26.4922 673.43 26.4928 672.735C26.4909 667.543 26.4915 662.35 26.4947 657.158C26.4947 657.008 26.521 656.857 26.5468 656.708C26.8185 655.11 28.0019 654.257 29.4094 654.099C30.14 654.017 30.8756 653.98 31.6098 653.931L33.5501 653.819L34.3842 653.765L36.8998 653.548L38.2943 653.438L40.6041 653.274L42.5444 653.16C42.5917 653.156 42.6352 653.091 42.6796 653.055ZM31.6754 677.978C31.7918 678.129 31.9215 678.272 32.0232 678.433C32.5163 679.205 33.223 679.485 34.121 679.425L40.2042 679.063L47.0502 678.649L50.4588 678.43C51.469 678.349 51.9568 677.803 51.9765 676.789V676.57L51.9841 659.975C51.985 659.475 51.8124 659.126 51.4125 658.847L46.5948 655.452C45.8198 654.888 44.997 654.624 44.0442 654.7L38.6489 655.099L33.0076 655.515L29.4667 655.791C28.7514 655.856 28.308 656.294 28.1798 656.996C28.1486 657.175 28.1334 657.356 28.1345 657.538L28.1198 672.029C28.1148 672.978 28.4053 673.768 28.9736 674.494L31.6754 677.978Z" fill="white"/>
<path d="M31.6626 677.964L28.9735 674.494C28.4052 673.768 28.1147 672.978 28.1197 672.029L28.1343 657.539C28.1343 657.357 28.1479 657.174 28.1796 656.996C28.3078 656.295 28.7512 655.857 29.4665 655.791L33.0074 655.515L38.649 655.099L44.044 654.7C44.9969 654.625 45.8196 654.888 46.5947 655.452C48.1832 656.608 49.8015 657.723 51.4124 658.847C51.8123 659.126 51.9849 659.476 51.984 659.976L51.9763 676.572V676.79C51.9567 677.803 51.4688 678.349 50.4587 678.43C49.324 678.522 48.1867 678.581 47.0501 678.65L40.2041 679.063L34.1209 679.426C33.2229 679.485 32.5161 679.205 32.0231 678.434C31.9213 678.273 31.7916 678.129 31.6626 677.964ZM33.0639 667.903V675.228L33.0656 676.595C33.0774 677.207 33.3776 677.512 33.9901 677.547C34.1438 677.556 34.2994 677.551 34.454 677.541L39.582 677.239L49.3743 676.679C49.9846 676.645 50.2666 676.378 50.3237 675.773C50.3349 675.664 50.3314 675.554 50.3314 675.445L50.3322 661.34C50.3322 661.258 50.3349 661.176 50.3298 661.094C50.2931 660.533 50.052 660.304 49.4942 660.334L44.4474 660.624C42.0835 660.762 39.7197 660.9 37.356 661.039L33.8107 661.252C33.3588 661.281 33.1544 661.476 33.0862 661.918C33.07 662.035 33.0629 662.153 33.0648 662.272L33.0639 667.903ZM45.5703 656.369C45.1422 656.136 44.6773 656.059 44.1987 656.086C43.463 656.126 42.7274 656.187 41.9915 656.24L31.5027 657.002C31.1857 657.025 30.867 657.048 30.5542 657.105C30.4492 657.123 30.3166 657.229 30.2842 657.325C30.2602 657.392 30.3663 657.529 30.4439 657.603C30.5876 657.74 30.7532 657.856 30.9098 657.98C31.2815 658.273 31.677 658.54 32.018 658.864C32.6649 659.478 33.4176 659.62 34.2799 659.558L41.0688 659.132L48.3773 658.694C48.444 658.691 48.5107 658.67 48.6575 658.643C48.5234 658.503 48.4455 658.397 48.344 658.321C47.986 658.057 47.6245 657.797 47.2597 657.542C46.6992 657.147 46.136 656.756 45.5703 656.369Z" fill="#0A0A0A"/>
<path d="M33.0641 667.875L33.065 662.271C33.065 662.153 33.0685 662.033 33.0864 661.917C33.1547 661.475 33.359 661.281 33.8109 661.251L37.3562 661.039L44.4476 660.623L49.4942 660.333C50.0522 660.303 50.2933 660.533 50.3298 661.093C50.3351 661.175 50.3325 661.257 50.3325 661.339L50.3316 675.444L50.3239 675.772C50.2668 676.377 49.9849 676.644 49.3745 676.678L39.5822 677.238L34.4543 677.54L33.9905 677.547C33.3778 677.512 33.0777 677.206 33.0659 676.595L33.0641 675.227V667.875ZM43.0754 667.889L40.2605 663.6C40.1623 663.451 40.0659 663.401 39.8847 663.421L38.6849 663.502L36.4777 663.664C35.9352 663.713 35.6071 664.223 35.7574 664.752L36.9264 664.852V674.323L36.1301 674.547C35.777 674.651 35.6259 674.949 35.7447 675.329L38.437 675.174L39.4975 675.087C39.9547 675.012 40.2008 674.732 40.2623 674.275L38.7901 673.939V666.816L38.8995 666.969L42.2831 672.252C42.7805 673.024 43.2913 673.787 43.8152 674.54C44.1886 675.076 44.739 675.24 45.3576 675.107C45.7448 675.024 46.1165 674.867 46.4958 674.745C46.6933 674.68 46.7607 674.563 46.7598 674.341L46.7533 664.607C46.7533 664.038 46.7533 664.038 47.3161 663.924C47.8853 663.81 48.0279 663.582 47.898 662.974L44.4964 663.181C44.1263 663.207 43.8461 663.517 43.7899 663.876C43.7623 664.05 43.7982 664.145 44.0058 664.158L45.0356 664.271V670.873C44.3833 669.878 43.7299 668.883 43.0754 667.89V667.889ZM45.5891 656.377C46.1475 656.763 46.7043 657.151 47.2595 657.541C47.6243 657.796 47.9859 658.056 48.344 658.32C48.4455 658.396 48.5234 658.502 48.6575 658.642L48.3773 658.693L41.0688 659.131L34.2799 659.557C33.4176 659.619 32.6649 659.477 32.018 658.863C31.677 658.539 31.2815 658.272 30.9096 657.979C30.7532 657.855 30.5876 657.739 30.4439 657.602C30.3663 657.527 30.2602 657.392 30.2842 657.324C30.3166 657.228 30.45 657.123 30.5542 657.104C30.867 657.047 31.1857 657.024 31.5027 657.001L41.9917 656.239L44.1989 656.085C44.6773 656.059 45.1422 656.135 45.5891 656.377Z" fill="white"/>
<path d="M43.0871 667.906L45.0355 670.873V664.272L44.0059 664.158C43.798 664.146 43.7622 664.05 43.7895 663.877C43.846 663.517 44.1264 663.208 44.4961 663.181L47.8979 662.975C48.0278 663.583 47.8852 663.81 47.316 663.925C46.7529 664.038 46.7529 664.038 46.7529 664.607L46.7597 674.342C46.7606 674.563 46.6932 674.681 46.4957 674.745L45.3575 675.107C44.7389 675.24 44.1885 675.077 43.8153 674.541C43.2916 673.787 42.7808 673.024 42.2832 672.253L38.8991 666.969C38.8753 666.932 38.848 666.897 38.7898 666.816V673.939L40.2622 674.275C40.2007 674.732 39.9546 675.012 39.4974 675.088C39.1487 675.145 38.7909 675.154 38.4369 675.175L35.7445 675.33C35.6258 674.949 35.7769 674.652 36.13 674.548L36.9262 674.323V664.853L35.7572 664.753C35.607 664.224 35.9351 663.714 36.4776 663.664C37.2117 663.596 37.9491 663.554 38.6848 663.503C39.0846 663.475 39.4863 663.465 39.8846 663.422C40.0657 663.402 40.1624 663.451 40.2604 663.601L43.0871 667.906Z" fill="#0A0A0A"/>
<g clip-path="url(#clip1_42_135)">
<path d="M39.9998 734.3C48.9467 734.3 56.1997 727.45 56.1997 719C56.1997 710.55 48.9467 703.7 39.9998 703.7C31.0528 703.7 23.7998 710.55 23.7998 719C23.7998 727.45 31.0528 734.3 39.9998 734.3Z" fill="#F2F2F2"/>
<path fill-rule="evenodd" clip-rule="evenodd" d="M40 737C49.9414 737 58 728.941 58 719C58 709.059 49.9414 701 40 701C30.0586 701 22 709.059 22 719C22 728.941 30.0586 737 40 737ZM36.7006 727.249C37.138 727.249 37.3378 727.055 37.579 726.819L37.6006 726.799L39.7624 724.699L44.2606 728.022C45.0868 728.477 45.6844 728.241 45.8914 727.253L48.8434 713.337C49.1458 712.126 48.3826 711.577 47.5906 711.935L30.2512 718.622C29.0686 719.095 29.074 719.756 30.0352 720.051L34.4848 721.439L44.7862 714.941C45.2722 714.646 45.7186 714.804 45.3532 715.13L37.0048 722.661L37.0066 722.663L36.7006 727.249Z" fill="#0A0A0A"/>
</g>
<defs>
<clipPath id="clip0_42_135">
<rect width="36" height="36" fill="white" transform="translate(22 597)"/>
</clipPath>
<clipPath id="clip1_42_135">
<rect width="36" height="36" fill="white" transform="translate(22 701)"/>
</clipPath>
</defs>
</svg>
